<svg xmlns="http://www.w3.org/2000/svg" width="682.667" height="682.667" preserveAspectRatio="xMidYMid meet" version="1.0" viewBox="0 0 512 512"><metadata>Created by potrace 1.11, written by Peter Selinger 2001-2013</metadata><g fill="#000" stroke="none"><path d="M705 4221 c-2 -5 20 -77 49 -162 29 -85 76 -224 105 -309 29 -85 55 -162 58 -170 12 -33 361 -1057 513 -1505 126 -372 189 -525 288 -690 194 -327 472 -487 842 -487 315 0 605 141 794 386 34 45 77 109 95 144 26 50 112 281 161 432 13 41 137 393 148 420 5 14 10 27 10 30 0 3 3 12 6 20 3 8 42 121 86 250 45 129 103 298 130 375 27 77 67 194 90 260 23 66 45 129 50 140 5 11 24 67 43 125 20 58 72 211 117 340 80 228 103 295 120 352 8 27 7 27 -23 23 -18 -2 -54 -7 -82 -10 -172 -20 -359 -77 -500 -151 -262 -136 -461 -378 -574 -699 -18 -49 -45 -126 -61 -170 -16 -44 -54 -152 -85 -240 -107 -301 -186 -520 -204 -570 -11 -27 -40 -108 -66 -180 -116 -319 -143 -374 -197 -405 -43 -24 -105 -29 -135 -10 -10 7 -26 23 -37 37 -15 21 -107 275 -211 588 -13 39 -57 169 -98 290 -287 836 -284 830 -387 982 -152 227 -378 391 -671 487 -68 22 -197 54 -249 61 -25 4 -62 10 -83 15 -20 4 -39 5 -42 1z" transform="translate(0.000000,512.000000) scale(0.100000,-0.100000)"/></g></svg>