<?xml version="1.0" standalone="no"?>
<!DOCTYPE svg PUBLIC "-//W3C//DTD SVG 20010904//EN"
 "http://www.w3.org/TR/2001/REC-SVG-20010904/DTD/svg10.dtd">
<svg version="1.0" xmlns="http://www.w3.org/2000/svg"
 width="841.000000pt" height="841.000000pt" viewBox="0 0 841.000000 841.000000"
 preserveAspectRatio="xMidYMid meet">
<metadata>
Created by potrace 1.11, written by Peter Selinger 2001-2013
</metadata>
<g transform="translate(0.000000,841.000000) scale(0.100000,-0.100000)"
fill="#000000" stroke="none">
<path d="M3925 8048 c-58 -31 -62 -92 -8 -151 l36 -40 -23 -19 c-12 -10 -30
-18 -40 -18 -9 0 -29 -9 -44 -21 -56 -44 -19 -149 52 -149 18 0 46 13 73 35
24 19 46 35 49 35 3 0 14 -15 25 -32 13 -23 19 -53 20 -98 0 -36 4 -73 9 -82
7 -17 0 -18 -98 -18 l-106 0 0 -25 c0 -25 0 -25 -99 -25 l-99 0 -353 -267
-354 -268 -3 -557 -2 -558 -580 0 -580 0 0 -1462 c0 -904 4 -1505 10 -1573 51
-560 295 -1081 690 -1475 722 -723 1820 -905 2736 -455 480 236 856 613 1089
1090 109 222 171 414 218 670 21 119 21 127 25 1663 l3 1542 -571 0 -570 0 0
554 0 555 -42 34 c-24 19 -184 141 -357 271 l-313 236 -99 0 c-99 0 -99 0 -99
25 l0 25 -105 0 -105 0 10 26 c15 37 12 91 -5 125 -17 32 -69 69 -96 69 -10 0
-28 19 -42 42 -23 39 -23 44 -8 54 9 6 30 15 47 18 85 19 95 132 15 165 -37
16 -63 8 -102 -30 -39 -38 -61 -34 -77 16 -22 70 -76 101 -127 73z m81 -78 c7
-20 22 -52 34 -73 l22 -37 37 21 c20 12 48 33 63 47 29 26 55 26 72 0 14 -23
-2 -50 -35 -59 -14 -3 -44 -18 -67 -32 l-41 -27 39 -68 c36 -62 43 -69 85 -80
36 -10 49 -19 62 -46 30 -64 -7 -126 -76 -126 -54 0 -69 7 -87 43 -13 24 -14
37 -4 71 11 40 10 45 -26 107 -21 35 -39 66 -40 67 -4 7 -104 -51 -104 -59 0
-5 -9 -13 -19 -19 -15 -7 -24 -5 -41 8 -29 24 -19 59 18 68 27 7 112 52 112
60 0 9 -52 86 -70 104 -35 35 -17 73 30 68 19 -2 28 -12 36 -38z m444 -871 l0
-311 -46 41 c-26 22 -61 46 -79 52 l-33 12 15 35 c50 121 -104 224 -196 131
-41 -40 -49 -107 -18 -147 11 -14 13 -12 -35 -34 -20 -10 -55 -34 -78 -54
l-40 -36 0 311 0 311 255 0 255 0 0 -311z m-570 226 c0 -19 -6 -26 -27 -31
-68 -14 -173 -48 -232 -75 -141 -64 -305 -196 -410 -329 -24 -30 -58 -68 -77
-83 -45 -37 -48 -94 -8 -134 l26 -26 -23 -56 c-12 -31 -35 -83 -50 -116 l-28
-60 0 222 -1 222 323 245 322 245 93 0 c91 1 92 1 92 -24z m1131 -217 c177
-132 323 -246 325 -252 2 -6 3 -110 2 -231 l-3 -219 -51 121 -50 120 28 32
c45 50 39 79 -34 158 -144 154 -247 252 -305 291 -116 79 -254 138 -385 166
-22 5 -28 12 -28 31 0 25 1 25 91 25 l90 0 320 -242z m-1131 -220 l-1 -353
-50 118 -50 118 31 25 c81 69 39 194 -67 194 -53 0 -100 -37 -109 -85 -8 -44
3 -74 39 -107 l30 -28 -50 -121 -50 -121 -5 45 c-6 53 -37 101 -81 123 -26 14
-28 18 -14 26 23 12 47 61 47 94 0 41 -59 94 -105 94 -47 0 -71 -13 -90 -50
-23 -45 -19 -88 13 -119 l27 -27 -29 -20 c-50 -33 -71 -70 -76 -137 l-5 -62
-31 79 -31 80 24 20 c36 32 39 74 10 118 l-25 37 81 87 c143 153 309 258 477
303 41 11 78 20 83 20 4 1 7 -158 7 -351z m724 327 c97 -28 201 -77 291 -138
62 -42 255 -230 255 -248 0 -6 -9 -22 -20 -36 -27 -35 -25 -75 6 -112 l26 -31
-29 -72 -28 -73 -5 50 c-8 66 -33 112 -77 137 -29 18 -32 23 -19 30 9 5 23 23
32 40 35 68 -18 148 -98 148 -86 0 -130 -100 -73 -168 l24 -29 -29 -22 c-43
-31 -64 -68 -70 -120 l-5 -46 -47 116 c-27 63 -48 121 -48 127 0 6 8 16 19 21
10 6 26 27 36 47 35 74 -17 154 -99 154 -23 0 -52 -7 -64 -16 -26 -18 -52 -65
-52 -94 0 -32 27 -78 54 -92 l24 -13 -45 -110 c-25 -60 -47 -112 -49 -114 -2
-2 -4 152 -4 342 0 191 2 347 4 347 2 0 43 -11 90 -25z m-370 -196 c32 -25 33
-55 4 -86 -28 -30 -62 -29 -87 3 -27 34 -26 50 4 79 29 30 45 31 79 4z m460
-122 c19 -53 -50 -90 -89 -47 -36 39 8 99 60 80 11 -4 24 -19 29 -33z m-908 8
c15 -23 15 -27 0 -50 -29 -44 -96 -24 -96 29 0 50 67 65 96 21z m-306 -70 c17
-20 5 -62 -20 -70 -44 -14 -80 41 -48 73 17 17 53 15 68 -3z m801 0 c63 -22
113 -66 143 -127 23 -47 26 -63 26 -165 l0 -113 -256 0 -256 0 4 123 c4 138
13 163 79 227 68 65 167 86 260 55z m697 3 c18 -18 15 -43 -8 -63 -17 -15 -24
-16 -45 -7 -43 20 -28 82 20 82 12 0 26 -5 33 -12z m-1768 -83 c17 -20 5 -45
-20 -45 -23 0 -35 22 -26 45 7 19 30 19 46 0z m2015 -15 c0 -18 -6 -26 -23
-28 -24 -4 -38 18 -28 44 3 9 15 14 28 12 17 -2 23 -10 23 -28z m-1424 -172
l55 -133 -109 -3 c-60 -1 -111 -1 -113 1 -5 5 100 267 107 267 3 0 30 -60 60
-132z m894 22 c21 -52 45 -110 52 -127 l13 -33 -115 0 -115 0 9 23 c42 110
105 247 111 240 3 -4 24 -51 45 -103z m-1206 56 c38 -20 51 -55 51 -141 l0
-75 -95 0 -95 0 0 83 c0 88 13 121 54 137 31 13 54 12 85 -4z m1500 0 c38 -20
51 -55 51 -141 l0 -75 -95 0 -95 0 0 83 c0 88 13 121 54 137 31 13 54 12 85
-4z m-1765 -151 l24 -60 -55 -3 c-30 -2 -57 -1 -60 1 -2 3 8 34 23 71 15 36
31 63 36 58 4 -4 19 -34 32 -67z m2006 9 c17 -36 30 -68 30 -70 0 -2 -27 -4
-61 -4 -54 0 -60 2 -54 18 4 9 16 41 27 70 12 28 23 52 25 52 2 0 17 -30 33
-66z m110 -159 l0 -25 -1145 0 -1145 0 0 25 0 25 1145 0 1145 0 0 -25z m-1460
-240 l0 -155 -415 0 -415 0 0 155 0 155 415 0 415 0 0 -155z m570 0 l0 -155
-255 0 -255 0 0 155 0 155 255 0 255 0 0 -155z m890 0 l0 -155 -415 0 -415 0
0 155 0 155 415 0 415 0 0 -155z m0 -260 l0 -45 -1145 0 -1145 0 0 45 0 45
1145 0 1145 0 0 -45z m-2707 -1577 c4 -1518 2 -1479 52 -1674 96 -379 343
-718 681 -936 69 -44 234 -124 316 -152 398 -137 825 -108 1203 80 473 235
796 703 854 1236 7 64 11 579 11 1488 l0 1390 370 0 370 0 0 -1372 c0 -821 -4
-1429 -10 -1513 -23 -318 -93 -580 -230 -860 -344 -705 -1026 -1186 -1809
-1276 -64 -7 -185 -10 -320 -6 -177 4 -241 9 -352 31 -894 171 -1591 826
-1814 1705 -63 249 -59 141 -62 1789 l-4 1502 370 0 370 0 4 -1432z m3027 907
l0 -525 -1470 0 -1470 0 0 525 0 525 1470 0 1470 0 0 -525z m-2173 -1497 c-3
-608 -8 -901 -16 -940 -31 -158 -91 -288 -176 -385 l-42 -47 -55 75 c-73 97
-104 161 -136 278 l-27 96 -3 903 -3 902 231 0 231 0 -4 -882z m933 30 c0
-914 -2 -964 -51 -1112 -25 -75 -72 -158 -134 -236 -38 -47 -40 -49 -58 -32
-35 31 -107 139 -136 204 -76 170 -81 234 -81 1201 l0 827 230 0 230 0 0 -852z
m928 -50 l-3 -903 -27 -96 c-32 -118 -64 -183 -136 -278 l-56 -74 -42 47 c-84
96 -144 226 -175 384 -8 39 -13 332 -16 940 l-4 882 231 0 231 0 -3 -902z"/>
<path d="M3080 6105 l0 -116 88 3 87 3 0 110 0 110 -87 3 -88 3 0 -116z m120
0 c0 -54 0 -55 -30 -55 -30 0 -30 1 -30 55 0 54 0 55 30 55 30 0 30 -1 30 -55z"/>
<path d="M3325 6195 c-22 -21 -25 -33 -25 -90 0 -57 3 -69 25 -90 18 -19 35
-25 70 -25 35 0 52 6 70 25 22 21 25 33 25 90 0 57 -3 69 -25 90 -18 19 -35
25 -70 25 -35 0 -52 -6 -70 -25z m105 -90 l0 -55 -35 0 -35 0 0 48 c0 57 4 62
42 62 27 0 28 -1 28 -55z"/>
<path d="M3560 6105 l0 -115 125 0 125 0 0 115 0 115 -125 0 -125 0 0 -115z
m190 0 l0 -56 -67 3 -68 3 -3 53 -3 52 70 0 71 0 0 -55z"/>
<path d="M4060 6178 c-51 -26 -70 -62 -54 -105 16 -48 82 -73 189 -73 107 0
173 25 189 73 16 43 -3 79 -54 105 -36 18 -61 22 -135 22 -74 0 -99 -4 -135
-22z m243 -50 c34 -13 35 -41 2 -56 -35 -16 -183 -15 -215 1 -75 38 11 81 140
69 25 -2 57 -8 73 -14z"/>
<path d="M4580 6105 l0 -116 128 3 127 3 0 110 0 110 -127 3 -128 3 0 -116z
m200 0 l0 -55 -70 0 -70 0 0 55 0 55 70 0 70 0 0 -55z"/>
<path d="M4945 6208 c-35 -20 -44 -42 -45 -106 0 -54 4 -66 25 -87 19 -20 34
-25 74 -25 69 0 91 28 91 114 0 33 -6 68 -13 77 -28 37 -92 50 -132 27z m83
-105 l3 -53 -35 0 -36 0 0 48 c0 56 5 64 40 60 23 -3 25 -8 28 -55z"/>
<path d="M5140 6105 l0 -115 85 0 85 0 0 115 0 115 -85 0 -85 0 0 -115z m110
0 c0 -54 0 -55 -30 -55 -29 0 -30 1 -30 48 0 55 4 62 37 62 21 0 23 -4 23 -55z"/>
<path d="M2251 5409 c-96 -32 -179 -63 -185 -69 -23 -23 15 -43 189 -100 99
-33 183 -60 188 -60 4 0 7 13 7 29 0 28 -3 29 -127 66 -71 20 -134 41 -142 45
-10 5 16 17 75 35 208 62 194 56 194 87 0 16 -5 28 -12 27 -7 0 -91 -27 -187
-60z"/>
<path d="M6225 5417 c-38 -24 -89 -54 -112 -67 l-42 -23 -70 56 c-38 32 -72
57 -75 57 -4 0 -6 -15 -6 -32 1 -30 11 -41 97 -108 l95 -75 -96 -3 -96 -3 0
-30 0 -29 193 2 192 3 0 25 c0 24 -3 25 -61 28 -54 3 -65 7 -93 36 l-33 34 69
38 c109 60 123 72 123 105 0 16 -3 29 -7 29 -5 0 -39 -20 -78 -43z"/>
<path d="M2064 5097 c-2 -7 -3 -62 -2 -123 l3 -109 28 -3 27 -3 0 95 0 96 55
0 55 0 0 -81 0 -80 28 3 c27 3 27 4 30 81 l3 77 54 0 55 0 0 -95 c0 -95 0 -95
25 -95 l25 0 0 125 0 125 -190 0 c-148 0 -192 -3 -196 -13z"/>
<path d="M5990 5053 c-88 -46 -97 -184 -15 -237 31 -20 142 -32 209 -22 122
19 165 155 76 241 -30 29 -36 30 -133 33 -83 2 -109 -1 -137 -15z m235 -68
c31 -30 32 -73 5 -103 -27 -29 -56 -35 -140 -30 -55 3 -75 8 -92 25 -31 31
-28 80 6 110 24 20 37 23 112 23 77 0 87 -2 109 -25z"/>
<path d="M2067 4783 c-4 -3 -7 -17 -7 -30 0 -22 3 -23 85 -23 l85 0 0 -40 0
-39 -85 -40 c-80 -37 -85 -42 -85 -70 0 -18 5 -31 13 -31 6 0 45 18 85 39 l72
39 34 -34 c38 -38 86 -45 135 -20 40 21 51 56 51 161 l0 95 -188 0 c-104 0
-192 -3 -195 -7z m333 -113 c0 -47 -4 -64 -20 -80 -44 -44 -90 -16 -98 58 -7
76 -2 82 63 82 l55 0 0 -60z"/>
<path d="M5920 4670 l0 -29 131 -3 131 -3 -131 -83 c-120 -76 -131 -86 -131
-113 l0 -29 193 2 192 3 3 27 3 27 -138 3 -138 3 135 86 c113 71 136 90 138
112 l3 27 -195 0 -196 0 0 -30z"/>
<path d="M2095 4436 c-56 -86 -42 -209 28 -242 71 -34 149 11 162 94 12 73 16
83 38 91 28 11 55 -3 69 -34 8 -18 7 -35 -5 -72 -15 -44 -15 -49 0 -60 9 -7
20 -13 25 -13 13 0 36 53 38 90 5 69 0 92 -29 121 -24 23 -38 29 -73 29 -72 0
-101 -30 -118 -121 -12 -61 -24 -79 -56 -79 -51 0 -70 84 -35 152 17 35 17 38
1 53 -22 20 -27 19 -45 -9z"/>
<path d="M6248 4238 l-3 -93 -162 -3 -163 -2 0 -25 0 -25 195 0 195 0 0 120 0
120 -30 0 -29 0 -3 -92z"/>
<path d="M2067 4093 c-4 -3 -7 -60 -7 -125 l0 -118 30 0 30 0 0 95 0 95 55 0
55 0 0 -80 0 -80 30 0 30 0 0 81 0 80 53 -3 52 -3 3 -92 c3 -91 3 -93 27 -93
l25 0 0 125 0 125 -188 0 c-104 0 -192 -3 -195 -7z"/>
<path d="M6040 3991 c-54 -8 -82 -25 -104 -63 -37 -61 -14 -151 47 -189 28
-17 46 -19 139 -17 98 3 109 5 133 28 41 38 58 78 52 122 -6 45 -28 82 -60
102 -27 17 -145 27 -207 17z m185 -81 c33 -31 33 -73 0 -105 -22 -23 -32 -25
-112 -25 -53 1 -94 5 -104 13 -55 42 -41 122 26 140 11 3 53 5 93 3 60 -3 77
-7 97 -26z"/>
<path d="M2198 3782 c-49 -3 -63 -8 -92 -35 -60 -57 -61 -131 -2 -195 32 -34
38 -36 105 -40 l72 -4 -3 68 c-3 66 -4 69 -28 69 -22 0 -25 -5 -28 -37 -3 -34
-6 -38 -32 -38 -19 0 -35 9 -49 26 -29 36 -27 75 5 105 23 22 34 24 113 24 94
0 115 -9 132 -52 10 -28 -5 -72 -31 -90 -12 -9 -20 -26 -20 -44 0 -34 5 -35
47 -9 86 52 86 191 -1 234 -34 16 -99 23 -188 18z"/>
<path d="M5920 3530 l0 -120 25 0 c25 0 25 1 25 85 l0 85 149 -91 c84 -51 157
-89 168 -87 16 3 18 16 21 126 l3 122 -31 0 -30 0 0 -85 c0 -47 -2 -85 -4 -85
-2 0 -66 38 -142 85 -76 47 -148 85 -161 85 -23 0 -23 -1 -23 -120z"/>
<path d="M2067 3413 c-4 -3 -7 -17 -7 -30 0 -22 3 -23 85 -23 l85 0 0 -75 0
-74 -82 -3 c-82 -3 -83 -3 -86 -30 l-3 -28 195 0 196 0 0 30 0 30 -80 0 -80 0
0 75 0 75 80 0 80 0 0 30 0 30 -188 0 c-104 0 -192 -3 -195 -7z"/>
<path d="M6120 3312 c-20 -20 -30 -43 -35 -78 -10 -67 -29 -96 -63 -92 -43 5
-57 46 -38 110 14 47 14 53 -2 64 -26 20 -32 17 -48 -22 -18 -43 -20 -114 -5
-152 22 -53 95 -77 151 -49 30 15 60 71 60 112 0 41 25 75 55 75 50 0 69 -66
39 -141 -16 -39 -16 -41 4 -61 l21 -21 20 34 c43 71 39 173 -9 221 -23 23 -37
28 -75 28 -38 0 -52 -5 -75 -28z"/>
<path d="M2335 3034 c-74 -39 -111 -54 -141 -54 -23 0 -62 -3 -88 -6 -40 -6
-46 -10 -46 -30 0 -23 3 -24 80 -24 77 0 84 -2 190 -55 60 -30 112 -55 115
-55 3 0 5 13 5 30 0 27 -6 32 -80 66 -44 20 -80 40 -80 44 0 4 36 23 80 43 75
34 80 38 80 67 0 16 -3 30 -7 29 -5 -1 -53 -25 -108 -55z"/>
<path d="M6103 2859 c-26 -9 -32 -56 -11 -77 16 -16 53 -15 68 2 29 36 -13 92
-57 75z"/>
<path d="M2288 2582 c-165 -44 -178 -49 -178 -70 0 -33 20 -36 99 -14 l71 20
10 -39 c33 -128 30 -120 53 -113 12 3 23 8 25 9 2 2 -6 36 -17 76 -11 40 -19
74 -17 77 2 2 27 9 55 17 l51 13 15 -51 c8 -29 18 -68 23 -87 8 -36 26 -47 50
-31 11 7 10 21 -6 82 -12 41 -26 93 -32 117 -6 23 -14 42 -18 41 -4 0 -87 -22
-184 -47z"/>
<path d="M5876 2553 c-5 -16 -2 -30 6 -38 7 -6 50 -44 96 -85 45 -40 82 -76
82 -79 0 -4 -57 -12 -127 -19 -70 -7 -130 -15 -134 -20 -4 -4 -9 -16 -11 -26
-3 -17 21 -27 176 -78 98 -33 182 -56 186 -51 5 4 10 17 12 27 2 16 -14 25
-107 56 l-110 37 70 7 c159 15 169 33 68 125 -37 33 -64 61 -59 61 4 0 53 -14
107 -31 55 -18 102 -30 104 -27 3 2 6 15 7 28 3 22 -7 27 -172 81 -96 32 -178
58 -181 58 -4 1 -10 -11 -13 -26z"/>
<path d="M2377 2266 c-86 -40 -160 -75 -162 -78 -3 -3 9 -36 26 -74 17 -38 40
-88 50 -112 17 -40 20 -42 41 -31 13 6 24 13 26 14 1 1 -14 36 -33 78 -19 42
-35 80 -35 86 0 11 38 33 76 45 18 6 25 -3 53 -64 18 -38 35 -70 37 -70 3 0
14 5 24 10 18 10 18 13 -10 76 -17 36 -30 70 -30 74 0 12 94 53 98 43 14 -39
73 -158 79 -160 5 -2 17 2 26 10 17 11 14 20 -30 119 -31 69 -53 107 -63 107
-8 0 -86 -33 -173 -73z"/>
<path d="M5732 2176 c-11 -24 -7 -27 104 -91 63 -37 122 -78 130 -91 31 -47
-7 -114 -66 -114 -13 0 -75 29 -137 65 -62 36 -116 65 -121 65 -5 0 -14 -10
-19 -22 -10 -22 -3 -28 111 -95 104 -62 128 -72 168 -73 115 0 180 147 99 227
-24 24 -237 153 -252 153 -3 0 -11 -11 -17 -24z"/>
<path d="M2532 1964 c-84 -58 -152 -111 -152 -119 0 -7 6 -18 14 -25 12 -9 27
-3 76 30 34 23 67 40 73 37 7 -3 18 -16 26 -29 12 -23 9 -32 -28 -98 -23 -39
-41 -77 -41 -83 1 -14 24 -47 33 -47 4 0 25 36 47 81 33 65 44 79 58 73 80
-34 162 18 162 103 0 25 -95 182 -111 183 -3 0 -74 -48 -157 -106z m189 -25
c31 -48 32 -53 18 -78 -15 -26 -63 -40 -84 -24 -16 12 -65 81 -65 90 1 10 71
61 86 62 7 1 27 -22 45 -50z"/>
<path d="M5540 1881 c-5 -11 -10 -22 -10 -24 0 -3 66 -57 146 -122 141 -113
146 -116 165 -99 11 10 18 21 17 25 -4 10 -291 239 -300 239 -4 0 -12 -9 -18
-19z"/>
<path d="M2745 1664 l-128 -136 86 -86 c86 -85 86 -86 107 -67 l21 19 -68 68
-67 68 39 40 39 40 58 -57 c49 -48 59 -54 72 -43 24 19 20 30 -36 87 l-52 53
37 37 37 38 63 -63 c67 -66 81 -73 96 -44 8 16 -4 32 -72 100 -45 45 -87 82
-93 82 -6 0 -69 -61 -139 -136z"/>
<path d="M5396 1721 c-54 -55 -77 -84 -73 -95 10 -26 29 -19 84 36 29 28 55
49 59 46 3 -4 21 -75 41 -160 23 -103 41 -159 54 -173 19 -19 20 -19 104 65
47 47 84 89 82 94 -2 5 -11 14 -20 20 -14 9 -27 0 -76 -48 -42 -42 -62 -55
-65 -45 -3 8 -19 79 -37 159 -28 128 -48 180 -68 180 -4 0 -42 -36 -85 -79z"/>
<path d="M5132 1630 c-19 -16 -23 -27 -20 -64 3 -40 5 -43 20 -32 15 11 42
116 29 116 -3 -1 -16 -9 -29 -20z"/>
<path d="M2996 1439 c-97 -149 -105 -163 -89 -175 10 -7 23 -13 28 -14 6 0 41
48 79 105 38 58 71 105 73 105 2 0 3 -71 2 -157 -1 -150 0 -158 20 -172 12 -7
23 -12 25 -10 18 21 206 311 206 317 0 5 -10 13 -22 19 -21 9 -28 2 -96 -98
-40 -60 -74 -109 -75 -109 -2 0 -3 73 -2 161 0 153 -1 162 -21 175 -20 14 -25
8 -128 -147z"/>
<path d="M5155 1526 c-17 -12 -16 -21 30 -207 26 -107 49 -196 51 -198 2 -2
14 4 28 12 22 15 24 20 15 49 -14 51 -13 55 50 98 l60 40 29 -25 c17 -14 37
-25 45 -25 20 0 43 29 31 40 -11 10 -314 230 -318 230 -1 0 -10 -6 -21 -14z
m125 -124 c25 -20 49 -39 53 -43 5 -4 -12 -21 -37 -38 l-45 -31 -21 68 c-31
107 -31 107 50 44z"/>
<path d="M4942 1402 c-10 -7 -1 -37 38 -127 27 -65 48 -120 46 -123 -2 -2 -59
35 -127 82 -67 47 -129 86 -138 86 -48 -1 -46 -13 30 -194 66 -157 76 -175 94
-170 11 4 23 9 27 13 3 3 -16 59 -43 125 -28 65 -49 120 -47 121 2 2 59 -37
128 -86 69 -48 130 -88 136 -89 5 0 18 6 28 13 16 12 12 25 -55 185 -72 172
-82 186 -117 164z"/>
<path d="M3420 1353 c-52 -27 -115 -156 -115 -235 0 -49 4 -61 29 -87 56 -59
138 -65 192 -14 l29 27 -29 11 c-23 10 -34 9 -57 -2 -51 -25 -109 9 -109 64 0
39 51 152 77 173 14 11 37 20 50 20 28 0 73 -41 73 -68 0 -16 36 -42 57 -42
11 0 -5 81 -21 105 -38 58 -116 79 -176 48z"/>
<path d="M4594 1268 c-4 -6 -21 -67 -38 -136 l-32 -124 -73 111 c-65 98 -77
111 -102 111 -16 0 -29 -3 -29 -7 0 -5 14 -87 30 -183 16 -96 30 -178 30 -182
0 -5 14 -8 30 -8 35 0 35 -5 11 125 -10 55 -17 102 -15 104 2 2 27 -33 55 -78
44 -69 55 -80 73 -75 30 9 31 11 51 102 10 45 21 82 25 82 3 0 14 -48 23 -107
10 -59 19 -108 21 -110 2 -2 16 -1 31 3 21 5 25 11 22 28 -3 11 -18 96 -33
189 -27 157 -30 167 -51 167 -12 0 -25 -5 -29 -12z"/>
<path d="M3883 1229 c-52 -26 -68 -59 -83 -170 -14 -103 -1 -147 51 -178 55
-33 85 -35 136 -9 52 26 78 66 86 136 6 47 9 45 -85 57 l-48 6 0 -30 c0 -29 3
-31 35 -31 30 0 35 -3 35 -23 0 -29 -32 -65 -65 -73 -28 -7 -68 15 -85 46 -14
26 4 164 25 197 30 46 104 39 127 -12 14 -32 68 -37 68 -6 0 43 -84 111 -137
111 -10 0 -37 -9 -60 -21z"/>
<path d="M4177 1223 c-3 -5 -2 -92 1 -195 5 -188 5 -188 28 -188 12 0 25 4 28
9 3 5 3 93 -1 195 -6 185 -6 186 -29 186 -13 0 -25 -3 -27 -7z"/>
<path d="M3040 5500 l0 -90 65 0 65 0 0 -70 0 -70 -70 0 -69 0 -3 63 -3 62
-87 3 -88 3 0 -221 0 -220 90 0 90 0 0 65 0 66 68 -3 67 -3 0 -70 0 -70 -62
-3 -63 -3 0 -84 0 -85 215 0 215 0 0 85 0 84 -62 3 -63 3 0 70 0 70 70 0 70 0
3 -62 3 -63 89 0 90 0 0 220 0 220 -90 0 -90 0 0 -65 0 -65 -75 0 -75 0 0 70
0 70 65 0 65 0 0 90 0 90 -215 0 -215 0 0 -90z"/>
<path d="M3970 5500 l0 -90 65 0 65 0 0 -70 0 -70 -70 0 -70 0 0 65 0 65 -90
0 -90 0 0 -220 0 -220 90 0 90 0 0 65 0 65 70 0 70 0 0 -75 0 -75 -65 0 -65 0
0 -85 0 -85 218 2 217 3 3 83 3 82 -66 0 -65 0 0 75 0 76 68 -3 67 -3 3 -62 3
-63 89 0 90 0 0 220 0 220 -90 0 -90 0 0 -65 0 -65 -70 0 -70 0 0 70 0 69 63
3 62 3 0 85 0 85 -217 3 -218 2 0 -90z"/>
<path d="M4904 5577 c-3 -8 -4 -47 -2 -88 l3 -74 63 -3 62 -3 0 -69 0 -70 -70
0 -70 0 0 65 0 66 -87 -3 -88 -3 -3 -217 -2 -218 90 0 90 0 0 65 0 65 70 0 70
0 0 -75 0 -75 -65 0 -65 0 0 -85 0 -85 220 0 220 0 0 85 0 85 -65 0 -65 0 0
75 0 75 70 0 70 0 0 -65 0 -65 90 0 90 0 0 220 0 220 -90 0 -90 0 0 -65 0 -65
-70 0 -70 0 0 70 0 69 63 3 62 3 0 85 0 85 -213 3 c-172 2 -213 0 -218 -11z"/>
</g>
</svg>
