<svg xmlns="http://www.w3.org/2000/svg" fill="#5e5e5e" viewBox="0 0 144.7 92.51"><path d="M78.87.13,5.09,46.58Q-.12,49.73,0,53.64v7.07q.12,3.91,5.22,6.94L41.74,88.72a1.72,1.72,0,0,0,2.48-.88L52.42,68,35,58.18a3.12,3.12,0,0,1-1.22-1.13,3.19,3.19,0,0,1,1-4.39l0,0L66.82,33.07,80,1a.77.77,0,0,0-.24-.85.74.74,0,0,0-.88,0Z"/><path d="M139.48,26l-36-21.83a1.72,1.72,0,0,0-2.48.76L92.54,24.74,109.68,35a3.1,3.1,0,0,1,1.19,1.16,3.2,3.2,0,0,1,0,3.23,3.13,3.13,0,0,1-1.19,1.16L77.51,59.45,63.85,91.25a.77.77,0,0,0,.06,1.07.74.74,0,0,0,1-.05h0L88.56,78l9.32,13.38a2.25,2.25,0,0,0,1.86,1H122.1a2.21,2.21,0,0,0,2-1.2,2.3,2.3,0,0,0-.11-2.33L108.81,65.63l30.68-18.55q5.22-3.16,5.22-7.07V33.07q0-3.91-5.22-7.07Z"/></svg>